<?xml version="1.0" standalone="no"?>
<!DOCTYPE svg PUBLIC "-//W3C//DTD SVG 20010904//EN"
 "http://www.w3.org/TR/2001/REC-SVG-20010904/DTD/svg10.dtd">
<svg version="1.0" xmlns="http://www.w3.org/2000/svg"
 width="399.000000pt" height="122.000000pt" viewBox="0 0 399.000000 122.000000"
 preserveAspectRatio="xMidYMid meet">

<g transform="translate(0.000000,122.000000) scale(0.100000,-0.100000)"
fill="#000000" stroke="none">
<path d="M895 1121 c-74 -19 -122 -60 -152 -126 -15 -34 -18 -79 -21 -319 -4
-305 4 -384 44 -453 68 -117 266 -138 369 -39 70 67 75 98 75 446 0 315 -5
357 -49 418 -12 17 -41 40 -65 51 -47 23 -153 35 -201 22z m99 -187 c14 -13
16 -55 16 -309 0 -254 -2 -296 -16 -309 -21 -22 -40 -20 -58 6 -14 19 -16 65
-16 305 0 270 1 284 20 303 24 24 34 25 54 4z"/>
<path d="M2335 1126 c-5 -2 -22 -7 -37 -10 -40 -9 -98 -64 -120 -114 -13 -29
-20 -67 -20 -116 -1 -109 27 -161 156 -294 58 -59 110 -120 115 -135 6 -16 11
-53 11 -83 0 -48 -3 -56 -25 -66 -21 -9 -28 -8 -45 7 -17 15 -20 31 -20 102
l0 83 -101 0 -102 0 7 -97 c8 -127 27 -183 76 -226 68 -62 213 -74 302 -25
101 56 140 270 75 412 -20 43 -54 84 -136 164 -133 131 -156 175 -107 207 40
26 66 6 66 -50 l0 -45 100 0 100 0 0 45 c0 51 -24 128 -51 167 -27 38 -96 68
-170 73 -35 3 -68 3 -74 1z"/>
<path d="M2925 1121 c-74 -19 -122 -60 -152 -126 -15 -34 -18 -79 -21 -319 -4
-305 4 -384 44 -453 68 -117 266 -138 369 -39 70 67 75 98 75 446 0 315 -5
357 -49 418 -12 17 -41 40 -65 51 -47 23 -153 35 -201 22z m99 -187 c14 -13
16 -55 16 -309 0 -254 -2 -296 -16 -309 -21 -22 -40 -20 -58 6 -14 19 -16 65
-16 305 0 270 1 284 20 303 24 24 34 25 54 4z"/>
<path d="M400 726 c0 -345 -2 -397 -16 -410 -20 -21 -37 -20 -57 2 -14 15 -17
42 -17 150 l0 132 -95 0 -95 0 0 -157 c0 -140 2 -162 21 -201 43 -88 157 -137
267 -114 73 15 123 51 158 115 l29 52 3 413 3 412 -100 0 -101 0 0 -394z"/>
<path d="M1340 625 l0 -495 95 0 95 0 0 495 0 495 -95 0 -95 0 0 -495z"/>
<path d="M1660 625 l0 -495 200 0 200 0 0 85 0 85 -100 0 -100 0 0 410 0 410
-100 0 -100 0 0 -495z"/>
<path d="M3380 625 l0 -495 95 0 95 0 1 238 1 237 49 -235 c26 -129 48 -236
49 -237 0 -2 43 -3 95 -3 l95 0 0 495 0 495 -95 0 -95 0 -1 -222 -1 -223 -34
170 c-19 94 -39 194 -45 223 l-10 52 -100 0 -99 0 0 -495z"/>
</g>
</svg>
